<svg width="474" height="423" viewBox="0 0 474 423" fill="none" xmlns="http://www.w3.org/2000/svg">
    <path opacity="0.1" d="M220.957 3.25348L444.045 339.092L221.013 210.299L220.957 3.25348Z"
          fill="url(#paint0_linear)"/>
    <path opacity="0.4" fill-rule="evenodd" clip-rule="evenodd"
          d="M435.463 358.445C437.258 361.137 436.248 363.886 433.948 362.54L198.07 226.286C196.724 225.501 195.658 223.649 195.658 222.079L195.602 3.19738C195.602 0.841409 197.958 0.897503 199.529 3.30957L435.463 358.445ZM234.476 104.504C232.905 102.092 230.549 102.036 230.549 104.392L230.605 200.146C230.605 201.716 231.671 203.567 233.017 204.353L336.4 264.094C338.7 265.44 339.709 262.691 337.914 259.999L234.476 104.504Z"
          fill="url(#paint1_linear)"/>
    <path opacity="0.3" d="M307.062 10.6019L474 107.029V194.031L321.815 106.075L307.118 110.899L307.062 10.6019Z"
          fill="url(#paint2_linear)"/>
    <path fill-rule="evenodd" clip-rule="evenodd"
          d="M340.943 59.3482C340.943 66.5283 336.68 69.894 331.463 66.8649C326.247 63.8358 321.983 55.5898 321.983 48.4097C321.983 41.2296 326.247 37.8639 331.463 40.893C336.736 43.9222 340.943 52.1681 340.943 59.3482Z"
          fill="#FFA989"/>
    <path opacity="0.15" d="M349.975 56.5434L386.548 77.6911V85.32L349.975 64.1723V56.5434Z" fill="#2C365E"/>
    <path opacity="0.15" d="M349.975 71.8572L459.191 134.964V142.593L349.975 79.4861V71.8572Z" fill="#2C365E"/>
    <path opacity="0.15" d="M349.975 87.1711L435.407 136.534V144.163L349.975 94.8V87.1711Z" fill="#2C365E"/>
    <path opacity="0.3" d="M166.882 224.996L0 128.569V215.572L152.185 303.472L166.938 325.293L166.882 224.996Z"
          fill="url(#paint3_linear)"/>
    <path fill-rule="evenodd" clip-rule="evenodd"
          d="M133 234.532C133 241.712 137.264 249.958 142.48 252.987C147.697 256.016 151.96 252.65 151.96 245.47C151.96 238.29 147.697 230.044 142.48 227.015C137.264 224.042 133 227.408 133 234.532Z"
          fill="#5BC2FF"/>
    <path opacity="0.15" d="M123.969 221.406L87.3955 200.258V207.887L123.969 229.034V221.406Z" fill="#2C365E"/>
    <path opacity="0.15" d="M124.025 236.663L14.7529 173.557V181.186L123.969 244.292L124.025 236.663Z" fill="#2C365E"/>
    <path opacity="0.15" d="M124.025 251.977L38.5931 202.614V210.243L124.025 259.606V251.977Z" fill="#2C365E"/>
    <path opacity="0.2" d="M107.533 0L177.259 40.276L177.315 191.339L107.533 151.063V0Z" fill="url(#paint4_linear)"/>
    <path fill-rule="evenodd" clip-rule="evenodd"
          d="M85.7126 41.454L140.573 73.1475V91.266L85.7126 59.5726V41.454H85.7126Z" fill="#5BC2FF"/>
    <path opacity="0.15" d="M107.533 128.625L177.259 168.901V191.283L107.533 151.007V128.625Z" fill="#2C365E"/>
    <path opacity="0.15" d="M116.116 27.4303L144.724 43.9221V51.551L116.116 35.0592V27.4303Z" fill="#2C365E"/>
    <path opacity="0.15" d="M116.172 42.7441L166.769 71.9695V79.5983L116.172 50.373L116.172 42.7441Z" fill="#2C365E"/>
    <path opacity="0.15" d="M145.846 126.325V133.954L116.172 116.789V109.16L145.846 126.325Z" fill="#2C365E"/>
    <path opacity="0.2" d="M254.838 271.442L185.112 231.166L185.169 382.229L254.894 422.505L254.838 271.442Z"
          fill="url(#paint5_linear)"/>
    <path fill-rule="evenodd" clip-rule="evenodd" d="M276.659 338.083L221.798 306.389V324.508L276.659 356.201V338.083Z"
          fill="#FFA989"/>
    <path opacity="0.15" d="M254.894 400.067L185.169 359.791V382.173L254.894 422.449V400.067Z" fill="#2C365E"/>
    <path opacity="0.15" d="M195.658 259.718L224.266 276.21V283.839L195.658 267.347V259.718Z" fill="#2C365E"/>
    <path opacity="0.15" d="M195.658 275.032L246.256 304.257V311.886L195.658 282.661V275.032Z" fill="#2C365E"/>
    <path opacity="0.15" d="M216.581 353.565V361.194L246.256 378.359V370.73L216.581 353.565Z" fill="#2C365E"/>
    <path opacity="0.2"
          d="M397.15 175.352C400.516 177.259 403.208 181.971 403.208 185.842V202.95L414.54 209.457C417.905 211.365 420.598 216.077 420.598 219.947C420.598 223.818 417.905 225.388 414.54 223.481L403.208 216.974V234.083C403.208 237.954 400.516 239.524 397.15 237.617C393.785 235.71 391.092 230.998 391.092 227.127V210.018L379.761 203.455C376.395 201.548 373.703 196.836 373.703 192.91C373.703 189.039 376.395 187.468 379.761 189.376L391.092 195.883V178.774C391.092 174.959 393.785 173.389 397.15 175.352Z"
          fill="url(#paint6_linear)"/>
    <defs>
        <linearGradient id="paint0_linear" x1="317.783" y1="-2.98603" x2="150.282" y2="124.955"
                        gradientUnits="userSpaceOnUse">
            <stop stop-color="#2C365E"/>
            <stop offset="1" stop-color="white" stop-opacity="0.01"/>
        </linearGradient>
        <linearGradient id="paint1_linear" x1="304.618" y1="-0.265529" x2="135.198" y2="129.809"
                        gradientUnits="userSpaceOnUse">
            <stop stop-color="#2C365E"/>
            <stop offset="0.8963" stop-color="white" stop-opacity="0.01"/>
        </linearGradient>
        <linearGradient id="paint2_linear" x1="299.196" y1="25.2364" x2="325.022" y2="199.62"
                        gradientUnits="userSpaceOnUse">
            <stop stop-color="#2C365E"/>
            <stop offset="1" stop-color="white" stop-opacity="0.01"/>
        </linearGradient>
        <linearGradient id="paint3_linear" x1="101.876" y1="139.34" x2="7.60509" y2="192.466"
                        gradientUnits="userSpaceOnUse">
            <stop stop-color="#2C365E"/>
            <stop offset="1" stop-color="#2C365E" stop-opacity="0"/>
        </linearGradient>
        <linearGradient id="paint4_linear" x1="156.11" y1="-43.5811" x2="76.0622" y2="-25.1511"
                        gradientUnits="userSpaceOnUse">
            <stop stop-color="#2C365E"/>
            <stop offset="1" stop-color="#2B324F" stop-opacity="0"/>
        </linearGradient>
        <linearGradient id="paint5_linear" x1="233.689" y1="187.584" x2="153.641" y2="206.014"
                        gradientUnits="userSpaceOnUse">
            <stop stop-color="#2C365E"/>
            <stop offset="1" stop-color="#2C365E" stop-opacity="0"/>
        </linearGradient>
        <linearGradient id="paint6_linear" x1="400.359" y1="177.195" x2="367.137" y2="191.305"
                        gradientUnits="userSpaceOnUse">
            <stop stop-color="#2C365E"/>
            <stop offset="1" stop-color="#2C365E"/>
        </linearGradient>
    </defs>
</svg>
